<?xml version="1.0" encoding="UTF-8" standalone="no"?>
<!DOCTYPE svg PUBLIC "-//W3C//DTD SVG 1.1//EN" "http://www.w3.org/Graphics/SVG/1.1/DTD/svg11.dtd">
<svg version="1.1" xmlns="http://www.w3.org/2000/svg" xmlns:xlink="http://www.w3.org/1999/xlink" preserveAspectRatio="xMidYMid meet" viewBox="0 0 1200 800" width="1200" height="800"><defs><path d="M551.31 370.19C551.31 530.96 451.96 661.5 329.6 661.5C207.24 661.5 107.9 530.96 107.9 370.19C107.9 209.41 207.24 78.88 329.6 78.88C451.96 78.88 551.31 209.41 551.31 370.19Z" id="c2zxbOseA"></path><path d="M441.76 289.99C441.76 346.9 391.5 493.88 329.6 493.88C267.7 493.88 217.45 346.9 217.45 289.99C217.45 233.09 267.7 186.89 329.6 186.89C391.5 186.89 441.76 233.09 441.76 289.99Z" id="a6nAzWVIZW"></path><path d="" id="cM4AUo7b7"></path><path d="M441.76 278.54L357.89 300.89L290.03 300.89L217.45 278.54" id="c1TD972wY4"></path><path d="M423.15 370.19L358.79 389.67L297 389.67L235.21 370.19" id="a15lVAbG78"></path><path d="M311.33 537.07L284.81 384.87L284.81 284.09L329.6 186.89" id="b4v0nw3vU"></path><path d="M347.87 528.9L365.72 389.67L365.72 300.89L329.6 186.89" id="b1nUCg58xn"></path><path d="" id="c6RgFir8H"></path><path d="M308.86 581.29L349.41 581.59L373.91 529.57L285.29 528.9L308.86 581.29Z" id="a1lNviwTJ2"></path></defs><g><g><g><use xlink:href="#c2zxbOseA" opacity="1" fill="#9fedd7" fill-opacity="1"></use></g><g><use xlink:href="#a6nAzWVIZW" opacity="1" fill="#fce181" fill-opacity="1"></use></g><g><g><use xlink:href="#cM4AUo7b7" opacity="1" fill-opacity="0" stroke="#000000" stroke-width="1" stroke-opacity="1"></use></g></g><g><g><filter id="shadow1260593" x="208.45" y="269.54" width="243.31" height="41.35" filterUnits="userSpaceOnUse" primitiveUnits="userSpaceOnUse"><feFlood></feFlood><feComposite in2="SourceAlpha" operator="in"></feComposite><feGaussianBlur stdDeviation="1"></feGaussianBlur><feOffset dx="1" dy="1" result="afterOffset"></feOffset><feFlood flood-color="#000000" flood-opacity="0.5"></feFlood><feComposite in2="afterOffset" operator="in"></feComposite><feMorphology operator="dilate" radius="1"></feMorphology><feComposite in2="SourceAlpha" operator="out"></feComposite></filter><path d="M441.76 278.54L357.89 300.89L290.03 300.89L217.45 278.54" id="bu8xXA4DW" fill="none" stroke="white" filter="url(#shadow1260593)"></path></g><g><use xlink:href="#c1TD972wY4" opacity="1" fill-opacity="0" stroke="#fef9c7" stroke-width="23" stroke-opacity="1"></use></g></g><g><g><use xlink:href="#a15lVAbG78" opacity="1" fill-opacity="0" stroke="#fef9c7" stroke-width="10" stroke-opacity="1"></use></g></g><g><g><use xlink:href="#b4v0nw3vU" opacity="1" fill-opacity="0" stroke="#026670" stroke-width="5" stroke-opacity="1"></use></g></g><g><g><use xlink:href="#b1nUCg58xn" opacity="1" fill-opacity="0" stroke="#026670" stroke-width="5" stroke-opacity="1"></use></g></g><g><g><use xlink:href="#c6RgFir8H" opacity="1" fill-opacity="0" stroke="#000000" stroke-width="5" stroke-opacity="0.77"></use></g></g><g><use xlink:href="#a1lNviwTJ2" opacity="1" fill="#edeae5" fill-opacity="1"></use><g><use xlink:href="#a1lNviwTJ2" opacity="1" fill-opacity="0" stroke="#026670" stroke-width="3" stroke-opacity="1"></use></g></g></g></g></svg>